<svg width="910" height="232" viewBox="0 0 910 232" fill="none" xmlns="http://www.w3.org/2000/svg">
<path d="M241.482 14.8906V22.3125H252.615C255.089 22.3125 256.326 21.0755 256.326 18.6016C256.326 16.1276 255.089 14.8906 252.615 14.8906H241.482ZM241.482 37.1562V52H226.639V0.046875H252.615C264.985 0.046875 271.17 6.23177 271.17 18.6016C271.17 30.9714 264.985 37.1562 252.615 37.1562H241.482ZM289.725 37.1562H304.568V52H274.881V0.046875H289.725V37.1562ZM349.1 0.046875V14.8906H323.123V18.6016H349.1V33.4453H323.123V37.1562H349.1V52H308.279V0.046875H349.1ZM368.879 48.2891L367.654 52H352.811L371.365 0.046875H386.209L404.764 52H389.92L388.695 48.2891H368.879ZM383.723 33.4453L378.787 18.6016L373.852 33.4453H383.723ZM427.029 33.4453C414.66 33.4453 408.475 27.8294 408.475 16.5977C408.475 5.5638 414.66 0.046875 427.029 0.046875H456.717L441.873 14.8906H427.029C424.555 14.8906 423.318 15.4596 423.318 16.5977C423.318 17.9336 424.555 18.6016 427.029 18.6016H438.162C450.532 18.6016 456.717 24.1185 456.717 35.1523C456.717 46.3841 450.532 52 438.162 52H406.619L421.463 37.1562H438.162C440.636 37.1562 441.873 36.4883 441.873 35.1523C441.873 34.0143 440.636 33.4453 438.162 33.4453H427.029ZM499.393 0.046875V14.8906H473.416V18.6016H499.393V33.4453H473.416V37.1562H499.393V52H458.572V0.046875H499.393ZM569.9 41.6094L566.189 52H551.346L532.791 0.046875H547.635L558.768 29.7344L562.293 20.3457L555.057 0.046875H569.9L581.033 29.7344L592.166 0.046875H607.01L588.455 52H573.611L569.9 41.6094ZM608.68 48.2891L607.455 52H592.611L611.166 0.046875H626.01L644.564 52H629.721L628.496 48.2891H608.68ZM623.523 33.4453L618.588 18.6016L613.652 33.4453H623.523ZM663.119 0.046875V52H648.275V0.046875H663.119ZM696.518 52H681.674V14.8906H666.83V0.046875H711.361V14.8906H696.518V52ZM37.418 131.609L33.707 142H18.8633L0.308594 90.0469H15.1523L26.2852 119.734L29.8105 110.346L22.5742 90.0469H37.418L48.5508 119.734L59.6836 90.0469H74.5273L55.9727 142H41.1289L37.418 131.609ZM78.2383 90.0469H93.082V108.602H111.637V90.0469H126.48V142H111.637V123.445H93.082V142H78.2383V90.0469ZM145.035 90.0469V142H130.191V90.0469H145.035ZM163.59 127.156H178.434V142H148.746V90.0469H163.59V127.156ZM222.965 90.0469V104.891H182.145V90.0469H222.965ZM222.965 108.602V123.445H182.145V108.602H222.965ZM222.965 127.156V142H182.145V127.156H222.965ZM293.473 131.609L289.762 142H274.918L256.363 90.0469H271.207L282.34 119.734L285.865 110.346L278.629 90.0469H293.473L304.605 119.734L315.738 90.0469H330.582L312.027 142H297.184L293.473 131.609ZM375.113 90.0469V104.891H349.137V108.602H375.113V123.445H349.137V127.156H375.113V142H334.293V90.0469H375.113ZM434.488 90.0469H451.188V104.891H434.488C431.421 104.891 428.798 105.979 426.621 108.156C424.444 110.333 423.355 112.956 423.355 116.023C423.355 119.091 424.444 121.714 426.621 123.891C428.798 126.068 431.421 127.156 434.488 127.156H451.188V142H434.488C427.314 142 421.191 139.464 416.119 134.393C411.048 129.321 408.512 123.198 408.512 116.023C408.512 108.849 411.048 102.726 416.119 97.6543C421.191 92.5827 427.314 90.0469 434.488 90.0469ZM469.742 104.891V112.312H480.875C483.349 112.312 484.586 111.076 484.586 108.602C484.586 106.128 483.349 104.891 480.875 104.891H469.742ZM475.791 127.156H469.742V142H454.898V90.0469H480.875C493.245 90.0469 499.43 96.2318 499.43 108.602C499.43 116.914 496.646 122.431 491.08 125.152L503.141 142H486.441L475.791 127.156ZM545.816 90.0469V104.891H519.84V108.602H545.816V123.445H519.84V127.156H545.816V142H504.996V90.0469H545.816ZM565.596 138.289L564.371 142H549.527L568.082 90.0469H582.926L601.48 142H586.637L585.412 138.289H565.596ZM580.439 123.445L575.504 108.602L570.568 123.445H580.439ZM620.332 142H605.488V104.891H590.645V90.0469H635.176V104.891H620.332V142ZM679.707 90.0469V104.891H653.73V108.602H679.707V123.445H653.73V127.156H679.707V142H638.887V90.0469H679.707ZM731.66 117.471L730.77 116.023L713.105 90.0469H729.916L738.971 103.555L748.211 90.0469H765.059L747.617 116.135L746.504 117.805V142H731.66V117.471ZM783.688 142C776.513 142 770.39 139.464 765.318 134.393C760.247 129.321 757.711 123.198 757.711 116.023C757.711 108.849 760.247 102.726 765.318 97.6543C770.39 92.5827 776.513 90.0469 783.688 90.0469C790.862 90.0469 796.985 92.5827 802.057 97.6543C807.128 102.726 809.664 108.849 809.664 116.023C809.664 123.198 807.128 129.321 802.057 134.393C796.985 139.464 790.862 142 783.688 142ZM783.688 127.156C786.755 127.156 789.378 126.068 791.555 123.891C793.732 121.714 794.82 119.091 794.82 116.023C794.82 112.956 793.732 110.333 791.555 108.156C789.378 105.979 786.755 104.891 783.688 104.891C780.62 104.891 777.997 105.979 775.82 108.156C773.643 110.333 772.555 112.956 772.555 116.023C772.555 119.091 773.643 121.714 775.82 123.891C777.997 126.068 780.62 127.156 783.688 127.156ZM813.375 116.023V90.0469H828.219V116.023C828.219 123.445 830.693 127.156 835.641 127.156C840.589 127.156 843.062 123.445 843.062 116.023V90.0469H857.906V116.023C857.906 133.341 850.484 142 835.641 142C820.797 142 813.375 133.341 813.375 116.023ZM876.461 104.891V112.312H887.594C890.068 112.312 891.305 111.076 891.305 108.602C891.305 106.128 890.068 104.891 887.594 104.891H876.461ZM882.51 127.156H876.461V142H861.617V90.0469H887.594C899.964 90.0469 906.148 96.2318 906.148 108.602C906.148 116.914 903.365 122.431 897.799 125.152L909.859 142H893.16L882.51 127.156ZM118.873 194.891V202.312H130.006C132.48 202.312 133.717 201.076 133.717 198.602C133.717 196.128 132.48 194.891 130.006 194.891H118.873ZM118.873 213.445V220.867H130.006C132.48 220.867 133.717 219.63 133.717 217.156C133.717 214.682 132.48 213.445 130.006 213.445H118.873ZM104.029 232V180.047H130.006C142.376 180.047 148.561 186.232 148.561 198.602C148.561 202.634 147.324 205.727 144.85 207.879C147.324 210.031 148.561 213.124 148.561 217.156C148.561 227.052 142.376 232 130.006 232H104.029ZM178.248 232C171.074 232 164.951 229.464 159.879 224.393C154.807 219.321 152.271 213.198 152.271 206.023C152.271 198.849 154.807 192.726 159.879 187.654C164.951 182.583 171.074 180.047 178.248 180.047C185.423 180.047 191.546 182.583 196.617 187.654C201.689 192.726 204.225 198.849 204.225 206.023C204.225 213.198 201.689 219.321 196.617 224.393C191.546 229.464 185.423 232 178.248 232ZM178.248 217.156C181.316 217.156 183.938 216.068 186.115 213.891C188.292 211.714 189.381 209.091 189.381 206.023C189.381 202.956 188.292 200.333 186.115 198.156C183.938 195.979 181.316 194.891 178.248 194.891C175.18 194.891 172.558 195.979 170.381 198.156C168.204 200.333 167.115 202.956 167.115 206.023C167.115 209.091 168.204 211.714 170.381 213.891C172.558 216.068 175.18 217.156 178.248 217.156ZM234.729 232H219.885V194.891H205.041V180.047H249.572V194.891H234.729V232ZM268.127 194.891V202.312H279.26C281.734 202.312 282.971 201.076 282.971 198.602C282.971 196.128 281.734 194.891 279.26 194.891H268.127ZM268.127 213.445V220.867H279.26C281.734 220.867 282.971 219.63 282.971 217.156C282.971 214.682 281.734 213.445 279.26 213.445H268.127ZM253.283 232V180.047H279.26C291.63 180.047 297.814 186.232 297.814 198.602C297.814 202.634 296.577 205.727 294.104 207.879C296.577 210.031 297.814 213.124 297.814 217.156C297.814 227.052 291.63 232 279.26 232H253.283ZM327.502 232C320.327 232 314.204 229.464 309.133 224.393C304.061 219.321 301.525 213.198 301.525 206.023C301.525 198.849 304.061 192.726 309.133 187.654C314.204 182.583 320.327 180.047 327.502 180.047C334.676 180.047 340.799 182.583 345.871 187.654C350.943 192.726 353.479 198.849 353.479 206.023C353.479 213.198 350.943 219.321 345.871 224.393C340.799 229.464 334.676 232 327.502 232ZM327.502 217.156C330.57 217.156 333.192 216.068 335.369 213.891C337.546 211.714 338.635 209.091 338.635 206.023C338.635 202.956 337.546 200.333 335.369 198.156C333.192 195.979 330.57 194.891 327.502 194.891C324.434 194.891 321.812 195.979 319.635 198.156C317.458 200.333 316.369 202.956 316.369 206.023C316.369 209.091 317.458 211.714 319.635 213.891C321.812 216.068 324.434 217.156 327.502 217.156ZM372.033 194.891V202.312H383.166C385.64 202.312 386.877 201.076 386.877 198.602C386.877 196.128 385.64 194.891 383.166 194.891H372.033ZM378.082 217.156H372.033V232H357.189V180.047H383.166C395.536 180.047 401.721 186.232 401.721 198.602C401.721 206.914 398.938 212.431 393.371 215.152L405.432 232H388.732L378.082 217.156ZM429.404 194.891C426.337 194.891 423.714 195.979 421.537 198.156C419.36 200.333 418.271 202.956 418.271 206.023C418.271 209.091 419.36 211.714 421.537 213.891C423.714 216.068 426.337 217.156 429.404 217.156C432.472 217.156 435.094 216.068 437.271 213.891C437.42 213.742 437.556 213.594 437.68 213.445H433.115V198.602H455.381V232H440.537V229.588C437.173 231.196 433.462 232 429.404 232C422.23 232 416.107 229.464 411.035 224.393C405.964 219.321 403.428 213.198 403.428 206.023C403.428 198.849 405.964 192.726 411.035 187.654C416.107 182.583 422.23 180.047 429.404 180.047H446.104V194.891H429.404ZM477.646 213.445C465.277 213.445 459.092 207.829 459.092 196.598C459.092 185.564 465.277 180.047 477.646 180.047H507.334L492.49 194.891H477.646C475.173 194.891 473.936 195.46 473.936 196.598C473.936 197.934 475.173 198.602 477.646 198.602H488.779C501.149 198.602 507.334 204.118 507.334 215.152C507.334 226.384 501.149 232 488.779 232H457.236L472.08 217.156H488.779C491.253 217.156 492.49 216.488 492.49 215.152C492.49 214.014 491.253 213.445 488.779 213.445H477.646ZM553.721 194.891V202.312H564.854C567.327 202.312 568.564 201.076 568.564 198.602C568.564 196.128 567.327 194.891 564.854 194.891H553.721ZM553.721 213.445V220.867H564.854C567.327 220.867 568.564 219.63 568.564 217.156C568.564 214.682 567.327 213.445 564.854 213.445H553.721ZM538.877 232V180.047H564.854C577.223 180.047 583.408 186.232 583.408 198.602C583.408 202.634 582.171 205.727 579.697 207.879C582.171 210.031 583.408 213.124 583.408 217.156C583.408 227.052 577.223 232 564.854 232H538.877ZM599.551 228.289L598.326 232H583.482L602.037 180.047H616.881L635.436 232H620.592L619.367 228.289H599.551ZM614.395 213.445L609.459 198.602L604.523 213.445H614.395ZM653.99 206.023V232H639.146V180.047H653.99L672.545 206.023V180.047H687.389V232H672.545L653.99 206.023ZM705.943 206.023V232H691.1V180.047H705.943L724.498 206.023V180.047H739.342V232H724.498L705.943 206.023ZM783.873 180.047V194.891H757.896V198.602H783.873V213.445H757.896V217.156H783.873V232H743.053V180.047H783.873ZM802.428 194.891V202.312H813.561C816.035 202.312 817.271 201.076 817.271 198.602C817.271 196.128 816.035 194.891 813.561 194.891H802.428ZM808.477 217.156H802.428V232H787.584V180.047H813.561C825.93 180.047 832.115 186.232 832.115 198.602C832.115 206.914 829.332 212.431 823.766 215.152L835.826 232H819.127L808.477 217.156Z" fill="#CA00E4"/>
</svg>
